# xmcd
#
# Track frame offsets: 
#        150
#        11032
#        23297
#        36210
#        50150
#        67090
#        76437
#        90770
#        103992
#        122255
#        133892
#        145932
#        159262
#        168880
#        182720
#        197162
#        212320
#        225690
#        236210
#        253067
#
# Disc length: 3594 seconds
#
# Revision: 4
# Processed by: cddbd v1.5.2PL0 Copyright (c) Steve Scherf et al.
# Submitted via: ExactAudioCopy v0.99pb4
#
DISCID=0b0e0814
DTITLE=Glen Campbell - The Glen Campbell Collection - Disc 1
DYEAR=1900
DGENRE=Country
TTITLE0=Try A Little Kindness
TTITLE1=By The Time I Get To Phoenix
TTITLE2=Bonpartes Retreat
TTITLE3=Witchita Lineman
TTITLE4=If You Could Read My Mind
TTITLE5=Let It Be Me
TTITLE6=All The Way
TTITLE7=Where's The Playground Suzie
TTITLE8=My Way
TTITLE9=Dreams Of The Everyday Housewife
TTITLE10=Galveston
TTITLE11=Honey Come Back
TTITLE12=If You Go Away
TTITLE13=Where Do I Begin
TTITLE14=My Elusive Dreams
TTITLE15=Bridge Over Troubled Water
TTITLE16=Gentle On The Mind
TTITLE17=Help Me Make It Through The Night
TTITLE18=Both Sides Now
TTITLE19=Yesterday When I Was Young
EXTD=
EXTT0=
EXTT1=
EXTT2=
EXTT3=
EXTT4=
EXTT5=
EXTT6=
EXTT7=
EXTT8=
EXTT9=
EXTT10=
EXTT11=
EXTT12=
EXTT13=
EXTT14=
EXTT15=
EXTT16=
EXTT17=
EXTT18=
EXTT19=
PLAYORDER=
